# xmcd
#
# Track frame offsets:
#	150
#	14900
#	32619
#	47587
#	67520
#	86550
#
# Disc length: 1370 seconds
#
# Revision: 1
# Processed by: cddbd v1.5.2PL0 Copyright (c) Steve Scherf et al.
# Submitted via: audiograbber 1.83.01
#
DISCID=40055806
DTITLE=Comstock - Comstock Summer 2000
DYEAR=2000
DGENRE=Country
TTITLE0=An Old Guitar And A Brand New Song - Mike Beeler (usa)
TTITLE1=Whiskey Castles - Bill Dawg Moore
TTITLE2=It Adds Up To The Blues - Beth Hogan (usa)
TTITLE3=Geronimo - Buffalo C. Wayne (luxembourg)
TTITLE4=Love On The Internett - Phil Shan
TTITLE5=If Tommorow Never Comes - Michael Graham (northern Ireland)
EXTD=
EXTT0=
EXTT1=
EXTT2=
EXTT3=
EXTT4=
EXTT5=
PLAYORDER=
